<svg xmlns="http://www.w3.org/2000/svg" width="11284" height="1340" viewBox="0 0 11284 1340" version="1.1"><path d="" stroke="none" fill="#241c1c" fill-rule="evenodd"/><path d="M 493.500 25.608 C 491.300 25.822, 484.325 26.460, 478 27.027 C 342.856 39.138, 214.281 108.409, 128.034 215.574 C 62.161 297.423, 24.260 393.681, 15.910 500.336 C 14.361 520.123, 15.268 573.793, 17.468 592.500 C 29.651 696.087, 68.761 787.403, 135.059 867.055 C 148.369 883.047, 180.953 915.631, 196.945 928.941 C 259.088 980.666, 327.488 1015.483, 404.292 1034.488 C 431.240 1041.156, 469.323 1047.098, 492.500 1048.251 C 495.250 1048.388, 486.250 1048.850, 472.500 1049.277 C 234.375 1056.676, 49.394 1103.728, 19.069 1164.611 C 14.764 1173.254, 13.702 1184.736, 16.435 1193.090 C 33.149 1244.191, 159.846 1288.165, 343 1306.434 C 409.795 1313.097, 441.809 1314.500, 527 1314.500 C 612.191 1314.500, 644.205 1313.097, 711 1306.434 C 893.332 1288.246, 1020.159 1244.424, 1037.396 1193.654 C 1039.458 1187.581, 1039.450 1176.401, 1037.380 1170.285 C 1032.314 1155.316, 1016.616 1139.822, 992.922 1126.407 C 917.644 1083.784, 763.791 1054.941, 581.500 1049.277 C 567.750 1048.850, 558.750 1048.388, 561.500 1048.251 C 572.890 1047.685, 597.616 1044.706, 614 1041.927 C 703.791 1026.695, 790.467 985.996, 859.950 926.438 C 954.269 845.594, 1016.280 733.326, 1033.908 611.498 C 1037.980 583.352, 1038.484 575.146, 1038.484 537 C 1038.484 498.854, 1037.980 490.648, 1033.908 462.502 C 1010.245 298.969, 907.371 155.759, 759.500 80.505 C 702.248 51.368, 645.316 34.614, 577.500 26.945 C 567.898 25.859, 501.756 24.806, 493.500 25.608 M 4803.013 244.690 C 4775.273 247.534, 4759.256 249.574, 4758.779 250.324 C 4758.367 250.971, 4758.024 252.512, 4758.015 253.750 C 4758.001 255.915, 4758.334 256, 4766.869 256 C 4791.105 256, 4816.324 264.726, 4834.509 279.403 C 4851.640 293.230, 4862.550 312.012, 4866.453 334.393 C 4869.948 354.432, 4874.032 761.604, 4872.062 893.500 C 4869.184 1086.132, 4868.858 1093.565, 4862.438 1112.552 C 4853.181 1139.931, 4829.531 1154.893, 4778 1165.971 C 4772.775 1167.094, 4767.488 1168.244, 4766.250 1168.526 C 4764.659 1168.888, 4764 1169.765, 4764 1171.519 L 4764 1174 4823.250 1174.001 C 4855.837 1174.001, 4922.663 1174.300, 4971.750 1174.665 L 5061 1175.330 5061 1173.143 C 5061 1170.262, 5058.676 1169.438, 5046.500 1167.999 C 5034.637 1166.598, 5015.511 1162.818, 5005.598 1159.916 C 4966.708 1148.531, 4943.802 1131.262, 4934.343 1106.197 C 4929.879 1094.366, 4929.037 1087.215, 4928.018 1052.500 C 4925.254 958.343, 4922.782 675.794, 4923.199 501.796 L 4923.500 376.091 5243.616 788.796 C 5548.936 1182.425, 5563.864 1201.485, 5566.608 1201.174 C 5568.190 1200.995, 5569.656 1200.677, 5569.865 1200.468 C 5570.075 1200.259, 5567.481 1125.030, 5564.102 1033.294 C 5558.190 872.781, 5557.921 862.377, 5556.978 757 C 5555.595 602.380, 5557.722 395.741, 5561.060 360.500 C 5562.742 342.751, 5568.769 327.224, 5578.088 316.637 C 5589.497 303.676, 5612.432 292.679, 5646.126 284.013 C 5657.232 281.156, 5658.692 280.539, 5658.259 278.883 C 5657.780 277.051, 5654.207 277, 5526.883 277 C 5400.243 277, 5396 277.060, 5396 278.848 C 5396 280.414, 5397.339 280.881, 5404.750 281.899 C 5409.563 282.559, 5418.675 284.250, 5425 285.655 C 5467.058 294.997, 5487.706 310.213, 5494.931 337.191 C 5499.607 354.650, 5500.884 375.480, 5504.083 486.500 C 5505.471 534.656, 5506.527 934.854, 5505.263 933.500 C 5504.749 932.950, 5495.609 921.025, 5484.951 907 C 5388.352 779.882, 5254.785 609.007, 5171.112 505.500 C 5081.901 395.141, 5014.219 316.664, 4988.622 293.904 C 4979.774 286.036, 4961.040 273.428, 4945.112 264.620 C 4919.523 250.471, 4897.430 243.662, 4868.500 241.010 C 4853.213 239.609, 4851.833 239.686, 4803.013 244.690 M 9424.976 240.625 C 9423.668 240.998, 9237.948 728.121, 9129.930 1014.500 C 9094.624 1108.104, 9093.431 1111.183, 9088.056 1122.561 C 9072.219 1156.086, 9055.395 1167.910, 9013.500 1174.955 C 8997.534 1177.640, 8997 1177.789, 8997 1179.567 C 8997 1180.797, 9008.737 1181.034, 9080 1181.243 C 9239.566 1181.710, 9232.500 1181.791, 9232.500 1179.500 C 9232.500 1177.707, 9231.257 1177.321, 9220.500 1175.770 C 9213.900 1174.818, 9205.575 1173.597, 9202 1173.057 C 9194.534 1171.929, 9173.052 1163.525, 9165.899 1158.935 C 9157.847 1153.768, 9150.836 1145.371, 9148.114 1137.632 C 9146.079 1131.848, 9145.810 1129.646, 9146.285 1122.675 C 9147.008 1112.066, 9150.752 1100.476, 9167.499 1057 C 9174.808 1038.025, 9191.456 994.825, 9204.494 961 C 9227.238 901.996, 9256.983 824.059, 9259.356 817.250 L 9260.489 814 9400.677 814 L 9540.864 814 9542.808 816.750 C 9543.877 818.263, 9545.206 821.525, 9545.761 824 C 9546.317 826.475, 9566.438 874.850, 9590.476 931.500 C 9614.514 988.150, 9635.894 1038.775, 9637.987 1044 C 9640.080 1049.225, 9645.412 1061.635, 9649.835 1071.577 C 9660.323 1095.153, 9663.424 1106.624, 9663.468 1122 C 9663.498 1132.922, 9663.349 1133.776, 9660.500 1138.987 C 9656.431 1146.429, 9646.880 1155.759, 9639 1159.990 C 9620.590 1169.875, 9606.990 1174.493, 9592 1175.949 C 9577.533 1177.354, 9576 1177.696, 9576 1179.519 C 9576 1180.821, 9595.426 1181, 9736.573 1181 C 9887.893 1181, 9897.128 1180.901, 9896.815 1179.280 C 9896.592 1178.120, 9895.022 1177.293, 9891.992 1176.738 C 9865.483 1171.885, 9861.554 1170.844, 9849.954 1165.600 C 9835.998 1159.291, 9827.953 1153.784, 9818.927 1144.362 C 9803.657 1128.421, 9795.797 1113.432, 9769.969 1051 C 9763.484 1035.325, 9753.594 1011.925, 9747.992 999 C 9735.528 970.246, 9722.403 938.806, 9704.995 896 C 9687.798 853.711, 9662.469 793.033, 9619.213 690.500 C 9579.575 596.541, 9556.501 541.267, 9533.012 484 C 9512.648 434.353, 9462.356 313.591, 9444.723 272 C 9432.578 243.354, 9431.148 240.486, 9428.934 240.345 C 9427.595 240.260, 9425.814 240.386, 9424.976 240.625 M 10578.190 253.684 C 10578.563 258.116, 10577.462 257.740, 10602.473 261.969 C 10612.530 263.669, 10624.068 265.978, 10628.113 267.099 C 10648.320 272.698, 10661.946 285.431, 10668.518 304.854 C 10673.953 320.920, 10674.967 331.328, 10676.976 391.650 C 10677.529 408.232, 10678.649 439.507, 10679.466 461.150 C 10683.570 569.848, 10684.569 651.142, 10683.099 757 C 10681.105 900.703, 10677.930 1023.046, 10674.938 1071.500 C 10672.282 1114.519, 10666.991 1129.923, 10650.602 1142.355 C 10638.108 1151.832, 10617.705 1158.329, 10588 1162.289 L 10578.500 1163.556 10578.190 1167.278 L 10577.879 1171 10911.971 1171 C 11178.352 1171, 11246.149 1170.747, 11246.486 1169.750 C 11246.931 1168.436, 11250.841 1109.699, 11253.592 1063 C 11254.483 1047.875, 11255.276 1025.610, 11255.356 1013.522 C 11255.485 993.802, 11255.330 991.510, 11253.846 991.217 C 11252.690 990.989, 11251.816 992.036, 11250.945 994.695 C 11250.260 996.788, 11247.713 1003.450, 11245.285 1009.500 C 11242.857 1015.550, 11239.073 1027.025, 11236.875 1035 C 11228.275 1066.212, 11218.197 1085.081, 11201.980 1100.337 C 11188.800 1112.736, 11178.819 1116.180, 11150.743 1118.018 C 11064.513 1123.663, 10962.770 1124.968, 10912 1121.080 C 10896.740 1119.911, 10864.712 1118.378, 10836.500 1117.465 C 10812.759 1116.696, 10808.332 1115.617, 10801.695 1108.981 L 10796.872 1104.157 10797.294 787.829 C 10797.572 579.592, 10798.100 461.591, 10798.838 442.500 C 10803.385 324.961, 10803.697 320.397, 10808.110 306.858 C 10814.696 286.655, 10827.659 274.064, 10849 267.138 C 10852.575 265.978, 10865.400 263.305, 10877.500 261.197 L 10899.500 257.365 10899.810 253.682 L 10900.121 250 10739 250 L 10577.879 250 10578.190 253.684 M 2143 260.687 C 2121.758 262.281, 2082.609 268.100, 2067 271.983 C 2028.486 281.566, 1991.403 299.410, 1963 322.028 C 1952.936 330.042, 1934.946 348.275, 1926.026 359.500 C 1890.118 404.691, 1874.628 454.649, 1878.013 514.355 C 1881.700 579.375, 1897.934 620.909, 1934.500 658.867 C 1951.896 676.925, 1972.166 693.794, 2001 714.210 C 2004.575 716.742, 2040.800 736.567, 2081.500 758.266 C 2151.898 795.799, 2168.573 805.313, 2195 823.026 C 2239.370 852.765, 2264.807 882.202, 2276.495 917.340 C 2282.622 935.757, 2283.507 942.021, 2283.439 966.500 C 2283.374 990.330, 2281.881 1004.726, 2277.372 1025 C 2265.672 1077.614, 2238.453 1117.710, 2202.015 1136.009 C 2186.466 1143.818, 2156.266 1151.729, 2133.576 1153.937 C 2078.966 1159.251, 2017.532 1144.645, 1974.455 1116.106 C 1962.836 1108.408, 1955.851 1102.058, 1945.927 1090.170 C 1918.220 1056.978, 1895.463 1010.553, 1886.043 968 C 1884.502 961.039, 1884.185 960.477, 1881.626 960.177 L 1878.869 959.855 1879.227 1045.177 C 1879.506 1111.583, 1879.869 1131.165, 1880.864 1133.500 C 1883.356 1139.346, 1890.518 1142.628, 1918 1150.519 C 1957.853 1161.961, 1965.097 1163.725, 1987.511 1167.441 C 2042.964 1176.635, 2085.808 1181.059, 2119.500 1181.071 C 2221.457 1181.107, 2305.006 1140.900, 2353.424 1068.500 C 2383.200 1023.975, 2397.394 971.308, 2393.997 917.954 C 2390.764 867.173, 2374.999 825.700, 2344.029 786.500 C 2335.031 775.111, 2313.374 754.026, 2299.956 743.590 C 2267.470 718.325, 2238.130 701.979, 2179.500 676.481 C 2123.927 652.312, 2091.422 635.719, 2064 617.523 C 2004.582 578.096, 1982.440 536.447, 1978.398 456.500 C 1976.186 412.757, 1989.763 373.267, 2016.772 344.885 C 2035.958 324.724, 2058.696 311.038, 2086.110 303.151 C 2108.208 296.793, 2123.410 294.847, 2151 294.843 C 2181.812 294.838, 2200.636 297.425, 2222.438 304.660 C 2243.187 311.547, 2272.876 328.481, 2286.576 341.244 C 2305.430 358.808, 2322.308 396.396, 2335.300 449.748 L 2339.500 466.997 2342.750 466.998 C 2344.537 466.999, 2346 466.565, 2346 466.033 C 2346 465.501, 2348.043 430.532, 2350.540 388.325 C 2353.036 346.117, 2354.949 308.415, 2354.790 304.542 L 2354.500 297.500 2346 293.284 C 2338.841 289.732, 2332.216 287.811, 2304 281.103 C 2262.293 271.188, 2243.912 267.581, 2219.589 264.538 C 2188.346 260.630, 2161.650 259.288, 2143 260.687 M 3197.478 263.750 C 3197.863 265.813, 3198.251 267.533, 3198.339 267.574 C 3199.790 268.245, 3216.935 271.176, 3224.454 272.040 C 3260.462 276.175, 3283.360 293.912, 3290.433 323.145 C 3294.375 339.440, 3296.086 384.896, 3296.541 485.500 C 3296.748 531.321, 3297.604 585.079, 3298.577 613.500 C 3300.015 655.462, 3300.132 676.505, 3299.394 760 C 3298.083 908.184, 3298.200 923.328, 3300.799 942.702 C 3311.805 1024.751, 3345.585 1083.050, 3405 1122.537 C 3451.697 1153.572, 3509.698 1171.264, 3589.031 1178.671 C 3616.526 1181.239, 3692.439 1181.243, 3718 1178.678 C 3787.680 1171.687, 3837.390 1157.278, 3879.850 1131.763 C 3899.408 1120.010, 3922.489 1100.064, 3936.277 1083 C 3963.036 1049.883, 3980.871 1006.389, 3989.380 953.500 C 3996.464 909.466, 3997.543 878.532, 3996.115 760.380 C 3994.355 614.741, 3994.849 531.251, 3998.008 440 C 3998.570 423.775, 3999.468 397.675, 4000.003 382 C 4001.344 342.704, 4004.096 326.222, 4011.745 311.666 C 4022.648 290.918, 4041.384 279.885, 4084.250 268.972 C 4099.965 264.971, 4101 264.562, 4101 262.354 L 4101 260 3966.500 260 C 3832.667 260, 3832 260.010, 3832 262 C 3832 263.100, 3832.167 264, 3832.370 264 C 3834.622 264, 3858.724 268.671, 3866.143 270.545 C 3908.363 281.209, 3925.763 295.644, 3933.528 326.448 C 3936.817 339.495, 3937.632 347.933, 3939.479 388 C 3943.745 480.570, 3944.553 563.233, 3943.112 759.500 C 3942.024 907.820, 3942.066 906.591, 3936.950 938.902 C 3929.173 988.025, 3912.189 1027.997, 3886.767 1057.014 C 3844.443 1105.322, 3773.970 1127.955, 3673 1125.667 C 3611.411 1124.271, 3567.256 1115.077, 3529.812 1095.852 C 3470.779 1065.543, 3435.316 1009.251, 3421.549 924 C 3414.459 880.102, 3413.640 856.164, 3414.314 712.500 C 3414.855 597.189, 3415.368 567.705, 3418.606 465.500 C 3419.477 438, 3420.368 399.300, 3420.587 379.500 C 3420.805 359.700, 3421.470 339.934, 3422.064 335.575 C 3427.282 297.271, 3451.982 276.292, 3499.809 269.543 C 3505.689 268.713, 3512.300 267.914, 3514.500 267.767 C 3518.345 267.510, 3518.512 267.354, 3518.810 263.750 L 3519.121 260 3357.949 260 L 3196.777 260 3197.478 263.750 M 6584 260.645 C 6579.875 260.867, 6561.875 261.974, 6544 263.105 C 6519.641 264.645, 6492.963 265.370, 6437.500 265.996 C 6364.724 266.819, 6317.355 268.387, 6315.617 270.031 C 6313.023 272.484, 6316.232 273.674, 6329.972 275.356 C 6370.636 280.335, 6394.753 292.719, 6405.227 314 C 6413.300 330.403, 6414.500 342.161, 6415.995 419.500 C 6420.489 651.916, 6420.726 783.225, 6416.992 970.500 C 6414.623 1089.261, 6413.041 1107.993, 6403.826 1126.393 C 6394.985 1144.045, 6383.330 1150.988, 6339.069 1164.968 C 6328.383 1168.343, 6319.270 1171.333, 6318.819 1171.612 C 6318.369 1171.890, 6318 1172.766, 6318 1173.559 C 6318 1174.786, 6323.301 1175.004, 6353.750 1175.024 C 6373.413 1175.037, 6397.600 1175.485, 6407.500 1176.019 C 6428.758 1177.166, 6539.449 1180.621, 6583 1181.497 C 6620.867 1182.259, 6700.755 1180.577, 6723.500 1178.539 C 6791.545 1172.444, 6851.707 1155.774, 6897.642 1130.289 C 6939.878 1106.857, 6980.153 1071.431, 7011.197 1030.407 C 7088.348 928.456, 7121.526 785.449, 7104.440 628.500 C 7089.901 494.947, 7036.094 394.329, 6947 334.088 C 6880.527 289.142, 6799.691 266.107, 6694 261.993 C 6665.418 260.880, 6595.511 260.023, 6584 260.645 M 7890 263.391 L 7890 266.783 7897.223 268.414 C 7901.195 269.311, 7909.408 270.762, 7915.473 271.638 C 7954.276 277.244, 7972.157 288.964, 7981.403 314.849 C 7987.464 331.816, 7988.581 350.519, 7990.016 459 C 7990.587 502.175, 7991.477 549.875, 7991.994 565 C 7993.247 601.634, 7993.242 820.805, 7991.987 903 C 7990.588 994.583, 7988.182 1089.573, 7986.951 1101.843 C 7983.536 1135.870, 7974.187 1152.469, 7952.500 1163.009 C 7942.027 1168.099, 7933.505 1170.323, 7910.580 1173.948 C 7900.174 1175.594, 7891.227 1177.373, 7890.697 1177.903 C 7890.168 1178.432, 7890.033 1179.644, 7890.398 1180.595 C 7891.019 1182.214, 7894.055 1182.283, 7937.695 1181.663 C 7963.344 1181.298, 8035.780 1181, 8098.664 1181 C 8208.408 1181, 8213 1180.927, 8213 1179.187 C 8213 1177.615, 8211.010 1177.080, 8198.039 1175.170 C 8157.197 1169.153, 8136.117 1159.060, 8127.104 1141.206 C 8118.350 1123.865, 8114.912 1098.215, 8111.526 1025 C 8106.019 905.915, 8104.862 682.057, 8109.005 537.161 C 8111.319 456.230, 8113.457 396.294, 8115.538 354 C 8116.604 332.347, 8120.005 315.871, 8125.754 304.506 C 8127.144 301.759, 8131.333 296.460, 8135.064 292.729 C 8146.700 281.093, 8160.138 275.937, 8194.159 270.054 C 8203.871 268.374, 8212.084 267, 8212.409 267 C 8212.734 267, 8213 265.425, 8213 263.500 L 8213 260 8051.500 260 L 7890 260 7890 263.391 M 6572.427 297.391 C 6554.300 300.873, 6546.110 308.736, 6540.704 327.846 C 6538.549 335.465, 6538.537 336.026, 6538.270 449.500 C 6538.122 512.200, 6538.383 682.525, 6538.851 828 C 6539.613 1065.291, 6539.864 1093.052, 6541.291 1097.869 C 6549.122 1124.299, 6568.367 1136.149, 6612.047 1141.436 C 6643.931 1145.294, 6700.230 1146.726, 6719 1144.155 C 6756.836 1138.973, 6790.566 1125.321, 6832.500 1098.217 C 6869.097 1074.563, 6897.225 1042.996, 6918.579 1001.613 C 6946.929 946.672, 6962.336 879.490, 6966.995 790.500 C 6968.279 765.971, 6968.275 663.274, 6966.988 638 C 6961.374 527.678, 6939.831 452.242, 6898.166 397.012 C 6882.368 376.069, 6866.338 361.519, 6838.738 343.067 C 6805.061 320.554, 6784.763 313.773, 6729.500 306.577 C 6663 297.917, 6653.459 297.077, 6615.500 296.541 C 6587.576 296.146, 6577.913 296.337, 6572.427 297.391 M 9337.642 605.858 C 9303.508 699.185, 9278.767 768.245, 9278.707 770.359 C 9278.650 772.364, 9279.114 774.514, 9279.737 775.137 C 9281.152 776.552, 9521.984 776.393, 9523.415 774.976 C 9525.022 773.384, 9524.088 766.017, 9521.472 759.661 C 9520.078 756.272, 9491.635 684.087, 9458.265 599.250 C 9424.896 514.413, 9397.342 445, 9397.034 445 C 9396.726 445, 9370 517.386, 9337.642 605.858" stroke="none" fill="#242424" fill-rule="evenodd"/></svg>